<?xml version="1.0" encoding="UTF-8" standalone="no"?>
<!DOCTYPE svg PUBLIC "-//W3C//DTD SVG 1.1//EN"
 "http://www.w3.org/Graphics/SVG/1.1/DTD/svg11.dtd">

<svg width="487pt" height="225pt"
 viewBox="0.00 0.00 487.00 225.00" xmlns="http://www.w3.org/2000/svg" xmlns:xlink="http://www.w3.org/1999/xlink">
<g id="graph0" class="graph" transform="scale(1 1) rotate(0) translate(4 221)">
<title>G</title>
<!-- 0 -->
<g id="node1" class="node"><title>0</title>
<ellipse fill="none" stroke="black" cx="22" cy="-167" rx="18" ry="18"/>
<ellipse fill="none" stroke="black" cx="22" cy="-167" rx="22" ry="22"/>
<text text-anchor="middle" x="22" y="-163.3" font-family="Times,serif" font-size="14.00">0</text>
</g>
<!-- 1 -->
<g id="node2" class="node"><title>1</title>
<ellipse fill="none" stroke="black" cx="109" cy="-93" rx="18" ry="18"/>
<ellipse fill="none" stroke="black" cx="109" cy="-93" rx="22" ry="22"/>
<text text-anchor="middle" x="109" y="-89.3" font-family="Times,serif" font-size="14.00">1</text>
</g>
<!-- 0&#45;&gt;1 -->
<g id="edge1" class="edge"><title>0&#45;&gt;1</title>
<path fill="none" stroke="black" d="M39.3889,-152.732C52.0517,-141.708 69.7637,-126.288 84.0197,-113.877"/>
<polygon fill="black" stroke="black" points="86.7056,-116.179 91.9497,-106.973 82.1093,-110.9 86.7056,-116.179"/>
<text text-anchor="middle" x="65.5" y="-135.8" font-family="Times,serif" font-size="14.00">0</text>
</g>
<!-- 2 -->
<g id="node3" class="node"><title>2</title>
<ellipse fill="none" stroke="black" cx="370" cy="-67" rx="18" ry="18"/>
<ellipse fill="none" stroke="black" cx="370" cy="-67" rx="22" ry="22"/>
<text text-anchor="middle" x="370" y="-63.3" font-family="Times,serif" font-size="14.00">2</text>
</g>
<!-- 0&#45;&gt;2 -->
<g id="edge2" class="edge"><title>0&#45;&gt;2</title>
<path fill="none" stroke="black" d="M40.7011,-179.045C57.321,-189.169 83.2635,-202 108,-202 108,-202 108,-202 284,-202 332.664,-202 354.568,-138.405 363.522,-98.5117"/>
<polygon fill="black" stroke="black" points="366.954,-99.1947 365.574,-88.6901 360.102,-97.7625 366.954,-99.1947"/>
<text text-anchor="middle" x="196" y="-205.8" font-family="Times,serif" font-size="14.00">1</text>
</g>
<!-- 1&#45;&gt;1 -->
<g id="edge3" class="edge"><title>1&#45;&gt;1</title>
<path fill="none" stroke="black" d="M101.317,-113.991C100.369,-124.087 102.93,-133 109,-133 112.889,-133 115.337,-129.342 116.346,-124.059"/>
<polygon fill="black" stroke="black" points="119.846,-124.102 116.683,-113.991 112.85,-123.868 119.846,-124.102"/>
<text text-anchor="middle" x="109" y="-136.8" font-family="Times,serif" font-size="14.00">0</text>
</g>
<!-- 3 -->
<g id="node4" class="node"><title>3</title>
<ellipse fill="none" stroke="black" cx="196" cy="-93" rx="18" ry="18"/>
<ellipse fill="none" stroke="black" cx="196" cy="-93" rx="22" ry="22"/>
<text text-anchor="middle" x="196" y="-89.3" font-family="Times,serif" font-size="14.00">3</text>
</g>
<!-- 1&#45;&gt;3 -->
<g id="edge4" class="edge"><title>1&#45;&gt;3</title>
<path fill="none" stroke="black" d="M131.011,-93C140.921,-93 152.947,-93 163.885,-93"/>
<polygon fill="black" stroke="black" points="163.936,-96.5001 173.936,-93 163.936,-89.5001 163.936,-96.5001"/>
<text text-anchor="middle" x="152.5" y="-96.8" font-family="Times,serif" font-size="14.00">1</text>
</g>
<!-- 2&#45;&gt;1 -->
<g id="edge5" class="edge"><title>2&#45;&gt;1</title>
<path fill="none" stroke="black" d="M348.169,-63.1154C312.131,-57.1328 236.054,-47.7624 174,-62 161.121,-64.955 147.824,-70.8579 136.709,-76.7272"/>
<polygon fill="black" stroke="black" points="134.995,-73.6759 127.944,-81.584 138.387,-79.7988 134.995,-73.6759"/>
<text text-anchor="middle" x="239.5" y="-58.8" font-family="Times,serif" font-size="14.00">0</text>
</g>
<!-- 4 -->
<g id="node5" class="node"><title>4</title>
<ellipse fill="none" stroke="black" cx="457" cy="-25" rx="18" ry="18"/>
<ellipse fill="none" stroke="black" cx="457" cy="-25" rx="22" ry="22"/>
<text text-anchor="middle" x="457" y="-21.3" font-family="Times,serif" font-size="14.00">4</text>
</g>
<!-- 2&#45;&gt;4 -->
<g id="edge6" class="edge"><title>2&#45;&gt;4</title>
<path fill="none" stroke="black" d="M390.288,-57.4695C401.451,-51.9536 415.696,-44.9148 428.068,-38.8017"/>
<polygon fill="black" stroke="black" points="429.667,-41.9159 437.081,-34.3481 426.566,-35.6402 429.667,-41.9159"/>
<text text-anchor="middle" x="413.5" y="-51.8" font-family="Times,serif" font-size="14.00">1</text>
</g>
<!-- 5 -->
<g id="node6" class="node"><title>5</title>
<ellipse fill="none" stroke="black" cx="283" cy="-93" rx="18" ry="18"/>
<ellipse fill="none" stroke="black" cx="283" cy="-93" rx="22" ry="22"/>
<text text-anchor="middle" x="283" y="-89.3" font-family="Times,serif" font-size="14.00">5</text>
</g>
<!-- 3&#45;&gt;5 -->
<g id="edge7" class="edge"><title>3&#45;&gt;5</title>
<path fill="none" stroke="black" d="M218.011,-93C227.921,-93 239.947,-93 250.885,-93"/>
<polygon fill="black" stroke="black" points="250.936,-96.5001 260.936,-93 250.936,-89.5001 250.936,-96.5001"/>
<text text-anchor="middle" x="239.5" y="-96.8" font-family="Times,serif" font-size="14.00">1</text>
</g>
<!-- 4&#45;&gt;1 -->
<g id="edge8" class="edge"><title>4&#45;&gt;1</title>
<path fill="none" stroke="black" d="M436.889,-15.9744C419.963,-8.81348 394.381,-0 371,-0 195,-0 195,-0 195,-0 159.976,-0 135.512,-36.3831 122.099,-63.6361"/>
<polygon fill="black" stroke="black" points="118.871,-62.2781 117.817,-72.8204 125.215,-65.2362 118.871,-62.2781"/>
<text text-anchor="middle" x="283" y="-3.8" font-family="Times,serif" font-size="14.00">0</text>
</g>
<!-- 4&#45;&gt;4 -->
<g id="edge9" class="edge"><title>4&#45;&gt;4</title>
<path fill="none" stroke="black" d="M449.317,-45.9908C448.369,-56.0872 450.93,-65 457,-65 460.889,-65 463.337,-61.3422 464.346,-56.0587"/>
<polygon fill="black" stroke="black" points="467.846,-56.1023 464.683,-45.9908 460.85,-55.868 467.846,-56.1023"/>
<text text-anchor="middle" x="457" y="-68.8" font-family="Times,serif" font-size="14.00">1</text>
</g>
<!-- 5&#45;&gt;1 -->
<g id="edge10" class="edge"><title>5&#45;&gt;1</title>
<path fill="none" stroke="black" d="M264.06,-104.435C251.662,-111.633 234.492,-120.247 218,-124 198.932,-128.339 193.068,-128.339 174,-124 161.982,-121.265 160.096,-117.366 149,-112 145.542,-110.328 141.914,-108.568 138.321,-106.821"/>
<polygon fill="black" stroke="black" points="139.555,-103.53 129.032,-102.3 136.491,-109.823 139.555,-103.53"/>
<text text-anchor="middle" x="196" y="-130.8" font-family="Times,serif" font-size="14.00">0</text>
</g>
<!-- 5&#45;&gt;2 -->
<g id="edge11" class="edge"><title>5&#45;&gt;2</title>
<path fill="none" stroke="black" d="M304.144,-86.8384C314.548,-83.656 327.45,-79.7093 339.001,-76.1762"/>
<polygon fill="black" stroke="black" points="340.167,-79.4796 348.706,-73.2075 338.12,-72.7857 340.167,-79.4796"/>
<text text-anchor="middle" x="326.5" y="-83.8" font-family="Times,serif" font-size="14.00">1</text>
</g>
</g>
</svg>
