<?xml version="1.0" encoding="UTF-8" standalone="no"?>
<!DOCTYPE svg PUBLIC "-//W3C//DTD SVG 1.1//EN"
 "http://www.w3.org/Graphics/SVG/1.1/DTD/svg11.dtd">
<svg width="226pt" height="118pt"
 viewBox="0.00 0.00 226.00 118.00" xmlns="http://www.w3.org/2000/svg" xmlns:xlink="http://www.w3.org/1999/xlink">
<g id="graph0" class="graph" transform="scale(1 1) rotate(0) translate(4 114)">
<title>G</title>
<!-- 0 -->
<g id="node1" class="node"><title>0</title>
<ellipse fill="none" stroke="black" cx="22" cy="-22" rx="18" ry="18"/>
<ellipse fill="none" stroke="black" cx="22" cy="-22" rx="22" ry="22"/>
<text text-anchor="middle" x="22" y="-18.3" font-family="Times,serif" font-size="14.00">0</text>
</g>
<!-- 0&#45;&gt;0 -->
<g id="edge1" class="edge"><title>0&#45;&gt;0</title>
<path fill="none" stroke="black" d="M14.3173,-42.9908C13.3688,-53.0872 15.9297,-62 22,-62 25.8888,-62 28.3373,-58.3422 29.3456,-53.0587"/>
<polygon fill="black" stroke="black" points="32.846,-53.1023 29.6827,-42.9908 25.8499,-52.868 32.846,-53.1023"/>
<text text-anchor="middle" x="22" y="-65.8" font-family="Times,serif" font-size="14.00">1</text>
</g>
<!-- 1 -->
<g id="node2" class="node"><title>1</title>
<ellipse fill="none" stroke="black" cx="109" cy="-55" rx="18" ry="18"/>
<ellipse fill="none" stroke="black" cx="109" cy="-55" rx="22" ry="22"/>
<text text-anchor="middle" x="109" y="-51.3" font-family="Times,serif" font-size="14.00">1</text>
</g>
<!-- 0&#45;&gt;1 -->
<g id="edge2" class="edge"><title>0&#45;&gt;1</title>
<path fill="none" stroke="black" d="M42.7144,-29.6538C53.3658,-33.7891 66.7283,-38.9769 78.5851,-43.5801"/>
<polygon fill="black" stroke="black" points="77.5093,-46.9169 88.0981,-47.2734 80.0427,-40.3914 77.5093,-46.9169"/>
<text text-anchor="middle" x="65.5" y="-42.8" font-family="Times,serif" font-size="14.00">0</text>
</g>
<!-- 1&#45;&gt;1 -->
<g id="edge3" class="edge"><title>1&#45;&gt;1</title>
<path fill="none" stroke="black" d="M101.317,-75.9908C100.369,-86.0872 102.93,-95 109,-95 112.889,-95 115.337,-91.3422 116.346,-86.0587"/>
<polygon fill="black" stroke="black" points="119.846,-86.1023 116.683,-75.9908 112.85,-85.868 119.846,-86.1023"/>
<text text-anchor="middle" x="109" y="-98.8" font-family="Times,serif" font-size="14.00">0</text>
</g>
<!-- 2 -->
<g id="node3" class="node"><title>2</title>
<ellipse fill="none" stroke="black" cx="196" cy="-22" rx="18" ry="18"/>
<ellipse fill="none" stroke="black" cx="196" cy="-22" rx="22" ry="22"/>
<text text-anchor="middle" x="196" y="-18.3" font-family="Times,serif" font-size="14.00">2</text>
</g>
<!-- 1&#45;&gt;2 -->
<g id="edge4" class="edge"><title>1&#45;&gt;2</title>
<path fill="none" stroke="black" d="M129.714,-47.3462C140.366,-43.2109 153.728,-38.0231 165.585,-33.4199"/>
<polygon fill="black" stroke="black" points="167.043,-36.6086 175.098,-29.7266 164.509,-30.0831 167.043,-36.6086"/>
<text text-anchor="middle" x="152.5" y="-42.8" font-family="Times,serif" font-size="14.00">1</text>
</g>
<!-- 2&#45;&gt;0 -->
<g id="edge5" class="edge"><title>2&#45;&gt;0</title>
<path fill="none" stroke="black" d="M174.408,-16.7239C161.94,-13.8037 145.665,-10.4744 131,-9 111.543,-7.04382 106.457,-7.04382 87,-9 76.0009,-10.1058 64.0966,-12.255 53.572,-14.4924"/>
<polygon fill="black" stroke="black" points="52.5873,-11.1261 43.592,-16.7239 54.1148,-17.9574 52.5873,-11.1261"/>
<text text-anchor="middle" x="109" y="-12.8" font-family="Times,serif" font-size="14.00">1</text>
</g>
</g>
</svg>
